<svg transform="scale(1)" version="1.1" id="EzjBcCOfnR" xmlns="http://www.w3.org/2000/svg" xmlns:xlink="http://www.w3.org/1999/xlink" x="0px" y="0px" width="500px" height="500px" viewBox="0 0 500 500" xml:space="preserve" class="pbimage_pbimage__wrapper__image__0LEis false"><title>Taxes</title><style type="text/css"> .st0{fill:#FFDC32;} .st1{fill:#FFB0CC;} .st2{fill:#000001;} .st3{fill:#005596;} .st4{fill:#FFFFFF;}
 .st4{fill:#FFFFFF;}
 .st3{fill:#005596;}
 .st2{fill:#ffffff;}
 .st1{fill:#5f822a;}
 .st0{fill:#FFDC32;}</style><g id="paper"><rect class="st0" x="141.84" y="185.38" transform="matrix(0.9773 -0.2119 0.2119 0.9773 -39.1811 57.169)" width="210.57" height="52" fill="#FFDC32"></rect><rect class="st1" x="158.74" y="295.65" transform="matrix(0.9773 -0.2119 0.2119 0.9773 -60.2986 41.9076)" width="13.25" height="13.25" fill="#5f822a"></rect><rect class="st1" x="164.48" y="322.09" transform="matrix(0.9773 -0.2119 0.2119 0.9773 -65.7732 43.7236)" width="13.25" height="13.25" fill="#5f822a"></rect><path class="st2" d="M179.67,425.9c-3.45,0-6.83-0.99-9.8-2.9c-4.08-2.63-6.9-6.69-7.93-11.43L99.29,122.64
		c-2.12-9.8,4.12-19.49,13.91-21.62l205.86-44.64c9.8-2.13,19.5,4.12,21.62,13.91l62.65,288.93c1.03,4.75,0.15,9.61-2.48,13.69
		s-6.69,6.9-11.43,7.93l-205.86,44.64C182.27,425.76,180.96,425.9,179.67,425.9z M322.92,56.97c-1.2,0-2.42,0.13-3.64,0.39
		L113.42,102c-4.48,0.97-8.32,3.63-10.81,7.49c-2.48,3.86-3.32,8.45-2.34,12.94l62.65,288.93c0.97,4.49,3.63,8.32,7.49,10.81
		c3.86,2.48,8.45,3.32,12.94,2.34l205.86-44.64c4.48-0.97,8.32-3.63,10.8-7.49s3.32-8.45,2.34-12.94L339.71,70.51
		C337.96,62.48,330.83,56.97,322.92,56.97z" fill="#ffffff"></path><path class="st2" d="M126.37,168.01c-0.22,0-0.43-0.15-0.48-0.38c-0.07-0.27,0.1-0.54,0.37-0.6l203.89-50.31
		c0.27-0.07,0.54,0.1,0.61,0.37c0.07,0.27-0.1,0.54-0.37,0.6l-203.89,50.31C126.45,168,126.41,168.01,126.37,168.01z" fill="#ffffff"></path><path class="st2" d="M149.74,259.6c-0.23,0-0.44-0.16-0.49-0.39l-11.02-50.82c-0.03-0.13,0-0.27,0.07-0.38
		c0.07-0.11,0.19-0.19,0.31-0.22l205.78-44.62c0.27-0.06,0.54,0.11,0.59,0.38l11.02,50.82c0.03,0.13,0,0.27-0.07,0.38
		c-0.07,0.11-0.19,0.19-0.32,0.22l-205.78,44.62C149.81,259.6,149.78,259.6,149.74,259.6z M139.32,208.66l10.81,49.84l204.81-44.41
		l-10.81-49.84L139.32,208.66z" fill="#ffffff"></path><path class="st2" d="M142.53,223.02c-0.23,0-0.44-0.16-0.49-0.39c-0.06-0.27,0.11-0.54,0.38-0.6l203.07-44.38
		c0.26-0.06,0.54,0.11,0.59,0.38c0.06,0.27-0.11,0.54-0.38,0.6L142.64,223C142.6,223.01,142.56,223.02,142.53,223.02z" fill="#ffffff"></path><path class="st2" d="M220.81,242.16c-0.23,0-0.44-0.16-0.49-0.4l-10.16-48.25c-0.06-0.27,0.12-0.54,0.39-0.59
		c0.27-0.06,0.54,0.12,0.59,0.39l10.16,48.25c0.06,0.27-0.12,0.54-0.39,0.59C220.88,242.15,220.84,242.16,220.81,242.16z" fill="#ffffff"></path><path class="st2" d="M288.89,228.35c-0.23,0-0.43-0.16-0.49-0.39l-11.27-48.4c-0.06-0.27,0.11-0.54,0.37-0.6
		c0.27-0.06,0.54,0.1,0.6,0.37l11.27,48.4c0.06,0.27-0.11,0.54-0.37,0.6C288.97,228.35,288.93,228.35,288.89,228.35z" fill="#ffffff"></path><path class="st2" d="M160.29,310.65c-0.1,0-0.19-0.03-0.27-0.08c-0.11-0.07-0.19-0.19-0.22-0.32L157,297.31
		c-0.06-0.27,0.11-0.54,0.38-0.59l12.95-2.81c0.13-0.03,0.27,0,0.38,0.07c0.11,0.07,0.19,0.19,0.22,0.31l2.81,12.95
		c0.06,0.27-0.11,0.54-0.38,0.59l-12.95,2.81C160.37,310.65,160.33,310.65,160.29,310.65z M158.08,297.58l2.6,11.97l11.97-2.6
		l-2.6-11.97L158.08,297.58z" fill="#ffffff"></path><path class="st2" d="M166.03,337.1c-0.23,0-0.44-0.16-0.49-0.39l-2.81-12.95c-0.06-0.27,0.11-0.54,0.38-0.59l12.95-2.81
		c0.27-0.06,0.54,0.11,0.59,0.38l2.81,12.95c0.06,0.27-0.11,0.54-0.38,0.59l-12.95,2.81C166.1,337.09,166.06,337.1,166.03,337.1z
		 M163.82,324.03l2.6,11.97l11.97-2.6l-2.6-11.97L163.82,324.03z" fill="#ffffff"></path><path class="st2" d="M139.66,177.44c-0.26,0-0.48-0.21-0.5-0.47c-0.02-0.28,0.19-0.51,0.47-0.53c6.35-0.36,11.95-3.22,17.88-6.24
		c4.01-2.04,8.15-4.16,12.51-5.39c0.69-0.2,1.42-0.33,2.08,0.01c0.43,0.23,0.69,0.6,0.93,0.92c0.06,0.09,0.12,0.17,0.19,0.26
		c1.51,1.92,4.52,1.9,8.93-0.05c21.36-9.47,43.85-16.39,66.84-20.55c5.93-1.07,12.3-2.04,18.68-1.86c0.78,0.02,1.56,0.06,2.35,0.1
		c1.96,0.1,3.99,0.2,5.96,0.02c3.37-0.32,6.65-1.51,9.82-2.66c0.85-0.31,1.7-0.62,2.56-0.91c9.64-3.3,20.1-4.72,30.28-4.09
		c0.28,0.02,0.49,0.25,0.47,0.53c-0.02,0.27-0.26,0.48-0.53,0.47c-10.04-0.62-20.38,0.78-29.89,4.04c-0.85,0.29-1.69,0.6-2.54,0.9
		c-3.23,1.17-6.57,2.38-10.06,2.71c-2.04,0.2-4.11,0.09-6.11-0.01c-0.77-0.04-1.55-0.08-2.32-0.1c-6.29-0.18-12.6,0.78-18.47,1.84
		c-22.91,4.15-45.32,11.04-66.61,20.48c-4.88,2.17-8.29,2.08-10.12-0.24c-0.07-0.09-0.14-0.19-0.22-0.29
		c-0.19-0.26-0.37-0.51-0.59-0.62c-0.36-0.19-0.88-0.07-1.34,0.06c-4.27,1.21-8.37,3.3-12.33,5.32c-5.76,2.94-11.72,5.97-18.28,6.35
		C139.68,177.44,139.67,177.44,139.66,177.44z" fill="#ffffff"></path><path class="st2" d="M150.19,186.49c-0.25,0-0.46-0.18-0.5-0.44c-0.04-0.27,0.16-0.52,0.43-0.56c3.27-0.42,6.59-1.55,9.8-2.64
		c5.8-1.97,11.8-4.01,17.58-1.86c0.49,0.18,0.96,0.39,1.44,0.6c0.99,0.44,1.92,0.85,2.92,1c1.36,0.21,2.77-0.09,3.99-0.38
		c4.21-1.02,8.37-2.62,12.41-4.17c6.8-2.62,13.85-5.33,21.22-5.28c1.32,0.01,2.65,0.1,3.93,0.2c1.12,0.08,2.29,0.17,3.43,0.19
		c6.79,0.12,13.55-1.87,20.07-3.81l0.64-0.19c27.14-8.07,55.11-14.83,82.17-21.37c0.27-0.07,0.54,0.1,0.6,0.37
		c0.06,0.27-0.1,0.54-0.37,0.6c-27.04,6.53-55,13.29-82.11,21.36l-0.64,0.19c-6.59,1.96-13.4,3.98-20.38,3.85
		c-1.17-0.02-2.34-0.11-3.48-0.19c-1.27-0.09-2.58-0.19-3.87-0.19c-0.05,0-0.11,0-0.16,0c-7.15,0-14.03,2.65-20.69,5.21
		c-4.06,1.56-8.26,3.18-12.53,4.21c-1.31,0.32-2.84,0.64-4.38,0.4c-1.13-0.17-2.17-0.63-3.18-1.07c-0.46-0.2-0.92-0.4-1.39-0.58
		c-5.44-2.03-11.01-0.14-16.91,1.87c-3.26,1.11-6.63,2.25-10,2.69C150.23,186.49,150.21,186.49,150.19,186.49z" fill="#ffffff"></path><path class="st2" d="M148.73,230.74c-0.22,0-0.42-0.14-0.48-0.36c-0.08-0.27,0.08-0.54,0.34-0.62c6.45-1.84,12.69-4.41,18.56-7.67
		c0.28-0.17,0.57-0.34,0.86-0.49c0.24-0.12,0.54-0.03,0.67,0.21c0.13,0.24,0.04,0.54-0.19,0.67c-0.28,0.16-0.55,0.31-0.83,0.47
		c-1.61,1-2.93,2.42-3.82,4.09c2.05,0.56,4.27-0.58,6.43-1.69c0.49-0.25,0.98-0.5,1.46-0.73c2.8-1.33,5.85-1.94,8.8-2.52l25.36-5.04
		c0.27-0.06,0.53,0.12,0.59,0.39c0.05,0.27-0.12,0.53-0.39,0.59l-25.36,5.04c-2.89,0.57-5.88,1.17-8.57,2.45
		c-0.47,0.22-0.95,0.47-1.44,0.72c-2.42,1.24-5.16,2.65-7.78,1.55c-0.12-0.05-0.22-0.15-0.27-0.28c-0.05-0.13-0.04-0.27,0.01-0.39
		c0.38-0.82,0.85-1.59,1.41-2.29c-4.88,2.43-9.98,4.4-15.22,5.89C148.82,230.74,148.78,230.74,148.73,230.74z" fill="#ffffff"></path><path class="st2" d="M231.5,213.29c-0.2,0-0.39-0.12-0.47-0.32c-0.1-0.26,0.03-0.55,0.29-0.65c5.53-2.14,11.01-4.6,16.28-7.34
		c0.08-0.04,0.15-0.08,0.23-0.12c0.25-0.12,0.54-0.02,0.67,0.22c0.12,0.24,0.03,0.54-0.21,0.67c-0.07,0.04-0.14,0.08-0.22,0.11
		c-1.62,0.87-2.93,2.32-3.65,4.02l9.26-2.98c1.07-0.34,2.18-0.7,3.34-0.83c0.88-0.1,1.75-0.06,2.6-0.02
		c0.44,0.02,0.88,0.02,1.33,0.04c3.53,0,6.95-1.18,10.26-2.32c0.26-0.09,0.55,0.05,0.64,0.31s-0.05,0.55-0.31,0.64
		c-3.38,1.17-6.88,2.38-10.58,2.38c-0.49,0-0.92-0.02-1.37-0.04c-0.85-0.04-1.65-0.07-2.45,0.02c-1.06,0.12-2.12,0.46-3.15,0.79
		l-10.22,3.29c-0.18,0.06-0.37,0.01-0.5-0.12c-0.13-0.13-0.18-0.32-0.13-0.5c0.3-1.04,0.79-2.03,1.44-2.9
		c-4.21,2.06-8.53,3.94-12.88,5.62C231.62,213.28,231.56,213.29,231.5,213.29z" fill="#ffffff"></path><path class="st2" d="M300.2,198.7c-0.29,0-0.58-0.01-0.87-0.02c-0.28-0.01-0.49-0.25-0.48-0.52c0.01-0.27,0.23-0.48,0.5-0.48
		c0.01,0,0.01,0,0.02,0c7.37,0.32,14.47-3.67,20.17-6.88c0.24-0.13,0.54-0.05,0.68,0.19c0.14,0.24,0.05,0.54-0.18,0.68l-4.34,2.52
		c1.19,0.16,2.46-0.06,3.61-0.25l16.68-2.84c0.27-0.04,0.53,0.14,0.58,0.41c0.05,0.27-0.14,0.53-0.41,0.58l-16.68,2.84
		c-1.57,0.27-3.52,0.6-5.27-0.08c-0.01,0-0.02-0.01-0.03-0.01C309.89,196.94,305.14,198.7,300.2,198.7z" fill="#ffffff"></path><path class="st2" d="M190.41,302.68c-0.43,0-0.85-0.09-1.18-0.3c-0.35-0.23-0.56-0.57-0.6-0.99c-0.01-0.08,0.01-0.16,0.04-0.23
		c0.68-1.62,1.53-3.18,2.53-4.63c-3.05,1.81-6.35,3.2-9.81,4.11c-0.27,0.07-0.54-0.09-0.61-0.36c-0.07-0.27,0.09-0.54,0.36-0.61
		c4.29-1.13,8.32-3.01,11.93-5.53c1.63-1.86,3.53-3.5,5.63-4.81c0.21-0.13,0.49-0.09,0.65,0.11c0.16,0.2,0.15,0.48-0.03,0.66
		c-1.71,1.78-3.58,3.38-5.58,4.79c-1.69,1.94-3.08,4.15-4.08,6.51c0.02,0.05,0.06,0.09,0.12,0.13c0.29,0.19,0.95,0.18,1.47-0.01
		c2.06-0.75,4-1.97,5.89-3.17c2.92-1.84,5.93-3.75,9.45-3.92c0.57-0.03,1.13-0.01,1.68,0.01c0.6,0.02,1.16,0.04,1.73,0
		c1.67-0.11,3.3-0.7,4.88-1.27l29.03-10.56c0.26-0.09,0.55,0.04,0.64,0.3c0.09,0.26-0.04,0.55-0.3,0.64l-29.03,10.56
		c-1.65,0.6-3.35,1.22-5.16,1.33c-0.62,0.04-1.23,0.02-1.83,0c-0.55-0.02-1.08-0.04-1.6-0.01c-3.26,0.16-6.03,1.91-8.97,3.77
		c-1.93,1.22-3.92,2.48-6.08,3.26C191.24,302.6,190.82,302.68,190.41,302.68z" fill="#ffffff"></path><path class="st2" d="M192.24,326.42c-0.21,0-0.4-0.09-0.49-0.27c-1.2-2.37,0.06-4.97,1.34-6.78c-2.51,1.36-4.97,2.84-7.34,4.42
		c-0.23,0.15-0.54,0.09-0.69-0.14c-0.15-0.23-0.09-0.54,0.14-0.69c3.06-2.05,6.28-3.93,9.57-5.6c0.22-0.11,0.48-0.05,0.62,0.14
		c0.15,0.19,0.14,0.46-0.02,0.64c-2.67,3.01-3.61,5.4-2.85,7.27c3.11-0.08,5.91-1.55,8.86-3.1c1.74-0.91,3.54-1.86,5.42-2.5
		c0.79-0.27,1.83-0.57,2.93-0.5c0.44,0.03,0.86,0.11,1.27,0.19c0.33,0.06,0.67,0.13,1.01,0.16c1.31,0.11,2.63-0.31,3.9-0.72
		l13.18-4.27c0.26-0.08,0.55,0.06,0.63,0.32c0.09,0.26-0.06,0.54-0.32,0.63l-13.18,4.27c-1.3,0.42-2.79,0.9-4.29,0.77
		c-0.37-0.03-0.74-0.1-1.11-0.17c-0.4-0.08-0.77-0.15-1.14-0.17c-0.92-0.05-1.85,0.21-2.55,0.45c-1.8,0.61-3.57,1.54-5.28,2.43
		C198.83,324.79,195.71,326.42,192.24,326.42z" fill="#ffffff"></path><path class="st3" d="M119.06,123.75c-1.1,0-2.11-0.74-2.41-1.85c-0.36-1.33,0.43-2.7,1.77-3.06l34.68-9.3
		c1.33-0.36,2.7,0.43,3.06,1.77c0.36,1.33-0.43,2.7-1.77,3.06l-34.68,9.3C119.49,123.72,119.27,123.75,119.06,123.75z" fill="#005596"></path><path class="st3" d="M145.93,155.9c-1.11,0-2.12-0.74-2.42-1.87l-9.42-36.06c-0.35-1.34,0.45-2.7,1.79-3.05
		c1.34-0.35,2.7,0.45,3.05,1.79l9.42,36.06c0.35,1.34-0.45,2.7-1.79,3.05C146.35,155.88,146.14,155.9,145.93,155.9z" fill="#005596"></path><path class="st3" d="M168.44,150.39c-0.13,0-0.27-0.01-0.4-0.03c-1.36-0.22-2.29-1.5-2.07-2.87l6.77-41.92
		c0.17-1.02,0.94-1.83,1.95-2.05c1.01-0.21,2.05,0.22,2.61,1.09l22.74,35.14c0.75,1.16,0.42,2.71-0.74,3.46
		c-1.16,0.75-2.71,0.42-3.46-0.74l-19.21-29.68l-5.74,35.5C170.71,149.52,169.64,150.39,168.44,150.39z" fill="#005596"></path><path class="st3" d="M172.11,133.74c-1.11,0-2.12-0.74-2.42-1.86c-0.35-1.33,0.44-2.7,1.78-3.06l13.44-3.56
		c1.33-0.36,2.7,0.44,3.06,1.78s-0.44,2.7-1.78,3.06l-13.44,3.56C172.54,133.71,172.32,133.74,172.11,133.74z" fill="#005596"></path><path class="st3" d="M238.94,130.87c-0.46,0-0.94-0.13-1.35-0.4l-41.92-27.1c-1.16-0.75-1.49-2.3-0.74-3.46s2.3-1.49,3.46-0.74
		l41.92,27.1c1.16,0.75,1.49,2.3,0.74,3.46C240.57,130.46,239.76,130.87,238.94,130.87z" fill="#005596"></path><path class="st3" d="M208.51,139.14c-0.33,0-0.67-0.07-0.99-0.21c-1.27-0.55-1.85-2.02-1.3-3.29l18.26-42.14
		c0.55-1.27,2.02-1.85,3.29-1.3c1.27,0.55,1.85,2.02,1.3,3.29l-18.26,42.14C210.4,138.57,209.48,139.14,208.51,139.14z" fill="#005596"></path></g><g id="coin"><g><circle class="st0" cx="103.69" cy="388.87" r="53.3"></circle><path class="st4" d="M120.76,338.38c-1.48,35.76-16.72,70.78-41.87,96.25l-0.45,0.98c0,0,4.78,2.3,6.32,1.23
			c14.93-13.69,26.72-30.38,38.4-46.93c0.63-0.9,1.3-1.97,1.01-3.03c-0.19-0.66-0.72-1.16-1.02-1.77c-0.82-1.65,0.13-3.57,0.96-5.21
			c1.41-2.75,2.56-5.62,3.43-8.58c0.7-2.35,1.23-4.77,1.45-7.22c0.64-6.97-1.12-14.25,1.17-20.87c0,0-1.81-1.19-1.9-1.82
			c-1.72-0.71-3.45-1.42-5.17-2.12C122.48,339.03,121.85,338.76,120.76,338.38z"></path><path class="st2" d="M103.69,442.6c-29.63,0-53.73-24.1-53.73-53.73c0-29.63,24.1-53.73,53.73-53.73s53.73,24.1,53.73,53.73
			C157.42,418.5,133.32,442.6,103.69,442.6z M103.69,336c-29.16,0-52.88,23.72-52.88,52.88s23.72,52.88,52.88,52.88
			s52.88-23.72,52.88-52.88S132.85,336,103.69,336z"></path><path class="st2" d="M103.69,437.01c-26.54,0-48.14-21.59-48.14-48.14s21.59-48.14,48.14-48.14s48.14,21.59,48.14,48.14
			S130.24,437.01,103.69,437.01z M103.69,341.58c-26.07,0-47.28,21.21-47.28,47.28c0,26.07,21.21,47.28,47.28,47.28
			s47.28-21.21,47.28-47.28C150.97,362.79,129.76,341.58,103.69,341.58z"></path><path class="st2" d="M100.98,422.78c-1.8,0-3.69-0.1-5.68-0.31c-0.7-0.08-1.21-0.7-1.14-1.41s0.71-1.21,1.41-1.14
			c5.93,0.62,10.9,0.27,15.2-1.05c5.19-1.59,9.36-4.67,11.74-8.66c2.64-4.39,2.84-9.82,0.53-13.82c-3.77-6.52-12.79-7.66-16.49-7.85
			c-0.96-0.05-1.94-0.07-2.93-0.09c-4.53-0.1-9.2-0.21-13.13-2.75c-4.55-2.93-6.99-8.95-5.94-14.63c0.96-5.19,4.58-9.87,9.68-12.53
			c4.43-2.31,9.98-3.1,15.62-2.24c0.7,0.1,1.18,0.76,1.07,1.46c-0.11,0.7-0.76,1.18-1.46,1.07c-5.11-0.78-10.1-0.08-14.05,1.98
			c-4.35,2.27-7.55,6.38-8.35,10.73c-0.87,4.68,1.12,9.62,4.82,12.01c3.32,2.14,7.44,2.23,11.8,2.34c1.01,0.03,2,0.04,2.99,0.09
			c5.12,0.26,14.35,1.78,18.58,9.13c2.76,4.78,2.55,11.22-0.55,16.41c-2.71,4.53-7.39,8.01-13.19,9.79
			C108.36,422.3,104.88,422.78,100.98,422.78z"></path><path class="st2" d="M99.76,358.74c-0.63,0-1.18-0.46-1.26-1.1l-0.97-7.03c-0.09-0.7,0.39-1.35,1.09-1.44
			c0.7-0.1,1.35,0.39,1.44,1.09l0.97,7.03c0.09,0.7-0.39,1.35-1.09,1.44C99.87,358.73,99.81,358.74,99.76,358.74z"></path><path class="st2" d="M107.87,430.01c-0.66,0-1.21-0.49-1.27-1.16l-0.65-7.03c-0.07-0.71,0.45-1.33,1.16-1.39
			c0.7-0.05,1.33,0.45,1.39,1.16l0.65,7.03c0.07,0.71-0.45,1.33-1.16,1.39C107.95,430.01,107.9,430.01,107.87,430.01z"></path></g><g><circle class="st0" cx="147.85" cy="389.3" r="53.3"></circle><path class="st4" d="M164.92,338.8c-1.48,35.76-16.72,70.78-41.87,96.25l-0.45,0.98c0,0,4.78,2.3,6.32,1.23
			c14.93-13.69,26.72-30.38,38.4-46.93c0.63-0.9,1.3-1.97,1.01-3.03c-0.19-0.66-0.72-1.16-1.02-1.77c-0.82-1.65,0.13-3.57,0.96-5.21
			c1.41-2.75,2.56-5.62,3.43-8.58c0.7-2.35,1.23-4.77,1.45-7.22c0.64-6.97-1.12-14.25,1.17-20.87c0,0-1.81-1.19-1.9-1.82
			c-1.72-0.71-3.45-1.42-5.17-2.12C166.63,339.46,166,339.19,164.92,338.8z"></path><path class="st2" d="M147.85,443.03c-29.63,0-53.73-24.1-53.73-53.73c0-29.63,24.1-53.73,53.73-53.73s53.73,24.1,53.73,53.73
			C201.58,418.93,177.48,443.03,147.85,443.03z M147.85,336.42c-29.16,0-52.88,23.72-52.88,52.88c0,29.16,23.72,52.88,52.88,52.88
			s52.88-23.72,52.88-52.88C200.73,360.14,177,336.42,147.85,336.42z"></path><path class="st2" d="M147.85,437.44c-26.54,0-48.14-21.59-48.14-48.14c0-26.54,21.59-48.14,48.14-48.14s48.14,21.59,48.14,48.14
			C195.99,415.84,174.39,437.44,147.85,437.44z M147.85,342.01c-26.07,0-47.28,21.21-47.28,47.28s21.21,47.28,47.28,47.28
			s47.28-21.21,47.28-47.28S173.92,342.01,147.85,342.01z"></path><path class="st2" d="M145.14,423.21c-1.8,0-3.69-0.1-5.68-0.31c-0.7-0.08-1.21-0.7-1.14-1.41c0.07-0.71,0.71-1.21,1.41-1.14
			c5.93,0.62,10.9,0.27,15.2-1.05c5.19-1.59,9.36-4.67,11.74-8.66c2.64-4.39,2.84-9.82,0.53-13.82c-3.77-6.52-12.79-7.66-16.49-7.85
			c-0.96-0.05-1.94-0.07-2.93-0.09c-4.53-0.1-9.2-0.21-13.13-2.75c-4.55-2.93-6.99-8.95-5.94-14.63c0.96-5.19,4.58-9.87,9.68-12.53
			c4.43-2.31,9.98-3.1,15.62-2.24c0.7,0.1,1.18,0.76,1.07,1.46c-0.11,0.7-0.76,1.18-1.46,1.07c-5.11-0.78-10.1-0.08-14.05,1.98
			c-4.35,2.27-7.55,6.38-8.35,10.73c-0.87,4.68,1.12,9.62,4.82,12.01c3.32,2.14,7.44,2.23,11.8,2.34c1.01,0.03,2,0.04,2.99,0.09
			c5.12,0.26,14.35,1.78,18.58,9.13c2.76,4.78,2.55,11.22-0.55,16.41c-2.71,4.53-7.39,8.01-13.19,9.79
			C152.51,422.72,149.03,423.21,145.14,423.21z"></path><path class="st2" d="M143.91,359.17c-0.63,0-1.18-0.46-1.26-1.1l-0.97-7.03c-0.09-0.7,0.39-1.35,1.09-1.44
			c0.7-0.1,1.35,0.39,1.44,1.09l0.97,7.03c0.09,0.7-0.39,1.35-1.09,1.44C144.03,359.16,143.97,359.17,143.91,359.17z"></path><path class="st2" d="M152.02,430.43c-0.66,0-1.21-0.49-1.27-1.16l-0.65-7.03c-0.07-0.71,0.45-1.33,1.16-1.39
			c0.7-0.05,1.33,0.45,1.39,1.16l0.65,7.03c0.07,0.71-0.45,1.33-1.16,1.39C152.1,430.43,152.06,430.43,152.02,430.43z"></path></g></g><g id="money"><path class="st1" d="M285.27,281.37c-3.51-4.38-9-6.67-14.41-8.17c-10.14-2.81-20.86-3.47-31.27-1.92
		c-2.36,0.35-5.29,0.58-6.59-1.42c-0.44-0.68-0.59-1.52-0.64-2.33c-0.32-5.04,3-10.11,7.75-11.82c1.67-0.6,3.46-0.82,5.17-1.3
		c4.85-1.36,8.82-4.74,12.92-7.66c6.64-4.73,13.99-8.44,21.73-10.98c3.81-1.25,8.34-2.11,11.55,0.3c1.47,1.1,2.51,2.81,4.21,3.5
		c2.45,1,5.22-0.46,7.86-0.2c2.53,0.25,4.64,2.05,7.12,2.59c4.63,1.01,9.28-2.55,13.96-1.85c2.19,0.33,4.13,1.56,5.99,2.76
		c4.33,2.79,8.65,5.58,12.98,8.37c1.15,0.74,2.37,1.57,2.86,2.85c0.98,2.57-1.42,5.1-2.07,7.77c-0.83,3.43,1.31,7.12,0.3,10.5
		c-0.8,2.68-3.39,4.45-4.52,7.01c-0.43,0.96-0.63,2.01-0.77,3.05c-0.6,4.58,0.08,9.32,1.51,14.06
		c-9.28,14.34-18.36,28.8-27.25,43.38c-3.2,5.25-6.39,10.54-8.79,16.2c-7.01,16.52-6.9,35.29-3.42,53.71
		c1.54,11.05,3.25,22.08,5.14,33.07c0,0-52.08-0.15-52.16-0.42c-1.27-0.52-2.75-1.32-2.82-2.69c-0.03-0.57,0.21-1.13,0.16-1.7
		c-0.05-0.65-0.47-1.21-0.86-1.73c-5.78-7.66-10.35-16.23-13.45-26.16c-4.13-13.08-5.8-26.92-4.9-40.61
		c0.54-8.19,2.01-16.41,5.33-23.92c4.09-9.28,10.83-17.14,18.07-24.24c7.24-7.1,15.08-13.59,22-20.99c2.77-2.96,5.49-6.26,6.3-10.24
		L285.27,281.37z"></path><path class="st2" d="M338.76,282.52c-6.83,3.79-14.91,4.39-22.71,4.71c-3.83,0.16-7.69,0.27-11.49-0.23
		c-2.77-0.36-5.48-1.04-8.19-1.71c-3.88-0.97-7.77-1.94-11.64-3.44c-1.38-0.45-2.06,1.82-3.42,2.31c-0.82,0.3-1.71-0.12-2.52-0.46
		c-3.81-1.59-8.17-1.43-12.13-0.28c-3.96,1.16-7.57,3.25-11.03,5.5c-9.43,6.13-18.32,13.93-22.72,24.29
		c-0.84,1.99-1.52,4.22-0.89,6.29c0.73,2.42,3.16,4.06,5.67,4.42c2.5,0.36,5.05-0.37,7.35-1.42c6.76-3.08,12-8.9,18.82-11.83
		c1.45-0.62,3-1.14,4.12-2.25c0.83-0.82,1.35-1.9,1.9-2.94c2.02-3.79,4.68-7.23,7.85-10.13c-7.6,2.1-14.25,6.71-20.25,11.82
		c-2.31,1.97-4.59,4.05-7.36,5.28c-0.99,0.44-2.17,0.74-3.11,0.21c-1.62-0.93-1.16-3.38-0.36-5.07c3.54-7.52,9.4-13.93,16.58-18.11
		c4.12-2.4,8.85-4.11,13.59-3.6c1.5,0.16,3.21,0.76,3.63,2.2c0.12,0.41,0.13,0.88,0.4,1.21c0.25,0.31,0.66,0.43,1.05,0.52
		c18.57,4.73,38.18,5.33,57.26,1.81c0.61-0.56,0.69-1.48,0.69-2.31C339.87,287.46,339.73,285.6,338.76,282.52z"></path><path class="st3" d="M330.49,250.51c1.12-0.95,2.82-0.83,4.19-0.31c1.37,0.52,2.6,1.39,4,1.86c2.11,0.7,4.43,0.4,6.56-0.25
		c7.32-2.23,13.3-8.43,20.92-9.05c1.19-0.1,2.5-0.02,3.43,0.74c1.19,0.96,1.41,2.7,2.32,3.93c1.07,1.44,3.01,2.03,4.8,1.88
		c1.79-0.14,3.46-0.91,5.44-2.31c8.05-5.92,17.73-9.6,27.69-10.51c2.7-0.25,5.58-0.25,7.91,1.13c2.02,1.19,3.38,3.34,3.89,5.63
		c0.51,2.29,0.23,4.7-0.51,6.93c-1.39,4.2-4.33,7.73-7.53,10.79c-2.18,2.09-4.57,4.09-6,6.75c-1.08,2.01-1.62,4.43-3.36,5.91
		c-0.83,0.71-1.86,1.13-2.76,1.74c-0.9,0.61-1.73,1.52-1.62,2.96c0.02,0.62,0.1,1.34,0.61,1.69c0.14,0.1,0.32,0.16,0.45,0.28
		c0.35,0.31,0.29,0.87,0.19,1.33c-0.17,0.83-0.34,1.66-0.51,2.49c-0.03,0.14-0.06,0.28-0.02,0.41c0.03,0.12,0.11,0.23,0.18,0.34
		c0.38,0.56,0.63,1.22,1.01,2.56c3.71,12.14,9.07,23.77,15.87,34.49c4.29,6.75,9.14,13.13,13.29,19.97
		c7.83,12.9,13.12,27.58,13.64,42.67c0.52,15.09-3.99,30.58-13.81,42.04c-2.33,2.72-5.07,5.5-5.38,9.07
		c-0.17,1.99,0.14,4.6-1.69,5.4l-0.15,1.64c0,0-118.26,0.1-118.45-0.15c-2.18-1.89-3.76-4.46-4.47-7.26
		c-0.42-1.67-0.55-3.44-1.34-4.98c-0.77-1.5-2.08-2.63-3.27-3.81c-4.61-4.59-7.69-10.56-9.57-16.79
		c-1.88-6.23-2.62-12.75-2.89-20.24c-0.34-8.71,1.56-17.39,4.5-25.59c2.94-8.2,6.92-15.99,11.85-24.46
		c4.68-7.6,10.83-14.17,16.94-20.69c5.81-6.2,11.64-12.43,18.3-18.28c4.65-5.05,10.08-9.36,16.06-12.96
		c0.91-4.32-1.15-8.81-4.1-12.09c-4.76-5.27-11.67-8.13-18.6-9.66c-2.02-0.45-4.12-0.81-5.87-1.91c-1.8-1.13-3.1-3.01-3.43-5.37
		c0.9-2.08,1.94-4.33,3.97-5.34C324.97,252.23,327.59,252.95,330.49,250.51z"></path><path class="st0" d="M351.2,283.58c1.95,1,4.18,1.27,6.37,1.44c10.68,0.83,21.58-0.33,31.65-3.98c3.86-1.4,7.66-3.17,12.02-3.66
		c4.13-0.43,8.38-0.35,12.36,0.84c7.96,2.38,14.17,9.13,17.16,16.89c1.8,4.67,2.56,9.78,1.83,14.73c-0.13,0.89-0.31,1.79-0.76,2.57
		s-1.18,1.44-2.06,1.59c-0.71,0.12-1.44-0.09-2.09-0.4c-3.37-1.6-4.92-5.42-6.75-8.68c-1.84-3.28-4.22-6.26-7.02-8.77
		c-0.94-0.85-1.99-1.66-3.23-1.91c-1.2-0.23-2.5,0.09-3.62-0.39c-0.69-0.29-1.23-0.86-1.74-1.41c-1.46-1.58-2.95-3.32-3.27-5.44
		c-0.03-0.22-0.05-0.46,0.01-0.67c0.26-0.84,1.46-0.81,2.3-0.55c2.74,0.85,5.28,2.32,7.37,4.27c1.83,1.7,3.3,3.74,4.97,5.6
		c2.36,2.62,5.11,4.86,7.84,7.09c0.88-4.77-1.17-9.74-4.45-13.32c-3.28-3.57-7.67-5.93-12.14-7.83c-0.62-0.26-1.27-0.53-1.95-0.52
		c-1.17,0.01-2.17,0.82-3.02,1.63c-1.01,0.98-1.94,2.04-2.99,3.45c-4.42,1.17-8.84,2.34-13.27,3.52c-3.1,0.82-6.22,1.65-9.39,2.17
		c-8.36,1.37-16.94,0.59-25.33-1.27c-0.68-0.95-1-2.12-1.1-3.29C350.83,286.11,350.94,284.93,351.2,283.58z"></path><path class="st2" d="M302.53,439.78c-0.09,0-0.18-0.02-0.27-0.08c-1.58-0.99-1.89-2.84-2.19-4.62c-0.09-0.53-0.17-1.05-0.29-1.54
		c-0.65-2.67-2.62-4.83-4.51-6.91c-0.52-0.57-1.04-1.14-1.53-1.72c-3.54-4.16-6.29-9.58-8.16-16.11
		c-5.68-19.83-1.57-43.59,11.26-65.19c11.73-19.74,28.75-35.6,45.17-50.16c0.21-0.18,0.52-0.17,0.71,0.04
		c0.18,0.21,0.16,0.52-0.04,0.71c-16.36,14.5-33.31,30.31-44.97,49.92c-12.7,21.36-16.77,44.83-11.16,64.4
		c1.83,6.39,4.51,11.69,7.96,15.74c0.49,0.57,1,1.13,1.51,1.7c1.98,2.18,4.03,4.43,4.75,7.35c0.13,0.52,0.22,1.07,0.31,1.62
		c0.27,1.64,0.53,3.19,1.73,3.94c0.23,0.15,0.3,0.46,0.16,0.69C302.86,439.7,302.69,439.78,302.53,439.78z"></path><path class="st2" d="M343.49,272.82c-0.11,0-0.21-0.03-0.3-0.1c-3.7-2.79-8.03-4.82-12.53-5.88c-0.59-0.14-1.2-0.26-1.8-0.39
		c-1.88-0.39-3.83-0.79-5.6-1.67c-2.1-1.05-4.51-3.34-4.39-6.34c0.12-2.99,2.74-5.18,5.15-6.23c1.22-0.53,2.5-0.89,3.74-1.25
		c1.28-0.36,2.6-0.74,3.8-1.29c0.25-0.11,0.55,0,0.66,0.25c0.11,0.25,0,0.55-0.25,0.66c-1.28,0.58-2.63,0.96-3.95,1.34
		c-1.21,0.34-2.46,0.7-3.61,1.2c-2.13,0.93-4.45,2.82-4.55,5.36c-0.1,2.52,2,4.49,3.84,5.4c1.65,0.83,3.53,1.21,5.35,1.59
		c0.61,0.13,1.22,0.25,1.83,0.39c4.64,1.09,9.1,3.18,12.91,6.05c0.22,0.17,0.26,0.48,0.1,0.7
		C343.79,272.75,343.65,272.82,343.49,272.82z"></path><path class="st2" d="M387.36,276.52c-0.79,0-1.61-0.31-2.05-1.03c-0.14-0.24-0.07-0.54,0.16-0.69c0.23-0.14,0.54-0.07,0.69,0.16
		c0.33,0.54,1.14,0.66,1.71,0.49c0.67-0.19,1.24-0.66,1.89-1.3c3.7-3.64,6.25-8.36,8.71-12.92c0.42-0.78,0.85-1.57,1.28-2.34
		c3-5.43,6.51-10.91,11.93-14.13c0.24-0.14,0.54-0.06,0.69,0.17c0.14,0.24,0.06,0.54-0.17,0.69c-5.21,3.1-8.64,8.44-11.57,13.75
		c-0.43,0.77-0.85,1.56-1.27,2.34c-2.5,4.62-5.08,9.41-8.89,13.16c-0.66,0.65-1.39,1.28-2.31,1.55
		C387.9,276.48,387.64,276.52,387.36,276.52z"></path><path class="st2" d="M372.41,267.23c-0.4,0-0.81-0.04-1.22-0.14c-2.44-0.57-3.89-2.81-4.53-4.1c-1.01-2.02-1.51-4.28-1.45-6.54
		c0.01-0.39,0.04-0.77,0.07-1.16c0.07-0.91,0.13-1.76-0.02-2.59c-0.18-1.04-0.85-2.19-1.92-2.39c-0.27-0.05-0.45-0.31-0.4-0.59
		c0.05-0.27,0.31-0.45,0.59-0.4c1.54,0.3,2.47,1.82,2.72,3.2c0.17,0.96,0.1,1.91,0.03,2.84c-0.03,0.37-0.05,0.75-0.07,1.12
		c-0.06,2.09,0.4,4.19,1.34,6.06c0.57,1.13,1.82,3.09,3.87,3.57c2.16,0.5,4.38-0.8,6.3-2.07c7.46-4.91,14.82-10.24,21.93-15.4
		l0.34,0.37l0.29,0.4c-7.17,5.19-14.54,10.53-22.01,15.45C376.52,266.04,374.51,267.23,372.41,267.23z"></path><path class="st2" d="M360.79,278.51c-0.04,0-0.07,0-0.11-0.01c-2.55-0.58-4.05-2.87-4.72-4.19c-0.55-1.08-0.95-2.24-1.33-3.36
		c-0.27-0.78-0.54-1.58-0.87-2.35c-1.77-4.16-5.18-7.55-9.35-9.28c-0.25-0.11-0.38-0.4-0.27-0.65c0.11-0.25,0.4-0.37,0.65-0.27
		c4.41,1.84,8.02,5.42,9.89,9.82c0.34,0.79,0.62,1.62,0.89,2.41c0.37,1.08,0.76,2.21,1.28,3.23c0.59,1.16,1.89,3.18,4.05,3.66
		c0.27,0.06,0.44,0.33,0.38,0.6C361.22,278.35,361.02,278.51,360.79,278.51z"></path><path class="st2" d="M365.11,285.82c-4.29,0-8.57-0.36-12.79-1.09c-0.27-0.05-0.46-0.31-0.41-0.58s0.31-0.46,0.58-0.41
		c15.09,2.6,31.02,0.44,44.87-6.1c0.25-0.11,0.55-0.01,0.67,0.24c0.12,0.25,0.01,0.55-0.24,0.67
		C387.62,283.35,376.35,285.82,365.11,285.82z"></path><path class="st2" d="M368.41,292.81c-5.4,0-10.77-0.55-16.05-1.66c-0.27-0.06-0.44-0.32-0.39-0.59c0.06-0.27,0.33-0.45,0.59-0.39
		c15.45,3.24,31.74,1.65,47.11-4.61l0.95-3.49c0.08-0.29,0.17-0.61,0.11-0.86c-0.08-0.29-0.37-0.59-0.66-0.88
		c-0.49-0.49-1.09-1.09-0.8-1.94c0.09-0.26,0.37-0.4,0.63-0.31c0.26,0.09,0.4,0.37,0.31,0.63c-0.08,0.23,0.12,0.47,0.56,0.91
		c0.37,0.37,0.78,0.78,0.92,1.34c0.13,0.5,0,0.98-0.11,1.37l-1.02,3.73c-0.04,0.15-0.15,0.27-0.29,0.33
		C389.9,290.65,379.1,292.81,368.41,292.81z"></path><path class="st2" d="M313.3,288.28c-9.28,0-18.55-1.87-27.15-5.61c-0.25-0.11-0.37-0.41-0.26-0.66c0.11-0.25,0.41-0.37,0.66-0.26
		c16.43,7.15,35.38,7.38,51.98,0.63c0.25-0.11,0.55,0.02,0.65,0.27c0.1,0.26-0.02,0.55-0.27,0.65
		C330.74,286.62,322.02,288.28,313.3,288.28z"></path><path class="st2" d="M311.66,294.47c-9.58,0-18.26-0.45-26.35-3.6c-0.26-0.1-0.38-0.39-0.28-0.65c0.1-0.26,0.39-0.38,0.65-0.28
		c8.68,3.38,18.13,3.59,28.69,3.52c6.88-0.05,15.44-0.11,23.2-2.32c0.27-0.08,0.54,0.08,0.62,0.34c0.08,0.27-0.08,0.54-0.34,0.62
		c-7.89,2.26-16.53,2.31-23.47,2.36C313.46,294.47,312.56,294.47,311.66,294.47z"></path><path class="st2" d="M255.96,260.9c-1.19,0-2.44-0.14-3.54-0.78c-1.42-0.83-2.38-2.76-1.54-4.31c0.13-0.24,0.44-0.33,0.68-0.2
		c0.24,0.13,0.33,0.43,0.2,0.68c-0.55,1.02,0.17,2.39,1.17,2.97c1.15,0.68,2.62,0.68,3.9,0.62c8.04-0.33,15.93-2.72,23.56-5.03
		c4.16-1.26,8.45-2.56,12.75-3.53c1.45-0.32,3.08-0.52,4.22,0.51c0.81,0.74,1.01,1.79,1.21,2.81c0.18,0.92,0.34,1.79,0.95,2.29
		c0.47,0.38,1.16,0.48,1.87,0.55c4.51,0.47,9.08,0.48,13.6,0.05c0.26-0.01,0.52,0.17,0.55,0.45c0.03,0.27-0.17,0.52-0.45,0.55
		c-4.58,0.44-9.23,0.43-13.8-0.05c-0.84-0.09-1.72-0.22-2.4-0.77c-0.89-0.72-1.1-1.82-1.3-2.87c-0.17-0.9-0.33-1.75-0.9-2.26
		c-0.79-0.72-2.13-0.54-3.33-0.27c-4.26,0.96-8.54,2.25-12.68,3.51c-7.69,2.33-15.64,4.74-23.81,5.08
		C256.58,260.89,256.27,260.9,255.96,260.9z"></path><path class="st2" d="M288.18,277.72c-0.19,0-0.39-0.02-0.59-0.07c-0.27-0.07-0.43-0.34-0.36-0.61c0.07-0.27,0.33-0.43,0.61-0.36
		c0.81,0.2,1.67-0.39,2.1-1.09c0.5-0.83,0.63-1.9,0.75-2.84l0.8-6.5c0.14-1.17,0.2-2.6-0.67-3.22c-0.62-0.44-1.54-0.33-2.44-0.15
		c-2,0.41-4,0.95-5.95,1.48c-2.14,0.58-4.35,1.18-6.58,1.61c-5.17,0.99-9.42,0.77-12.98-0.67c-0.26-0.1-0.38-0.39-0.28-0.65
		c0.1-0.26,0.4-0.38,0.65-0.28c3.38,1.36,7.45,1.56,12.42,0.61c2.19-0.42,4.38-1.01,6.5-1.59c1.96-0.53,3.98-1.08,6.01-1.5
		c1.12-0.23,2.29-0.35,3.22,0.31c1.3,0.92,1.26,2.7,1.08,4.15l-0.8,6.5c-0.13,1.04-0.27,2.22-0.89,3.24
		C290.28,276.94,289.3,277.72,288.18,277.72z"></path><path class="st2" d="M298.35,281.44c-0.11,0-0.23-0.04-0.32-0.12c-0.21-0.18-0.24-0.49-0.06-0.71c3.14-3.77,7.84-6.73,13.99-8.79
		c3.43-1.16,7.01-1.97,10.47-2.75c1.81-0.41,3.69-0.83,5.51-1.3c0.27-0.07,0.54,0.09,0.61,0.36c0.07,0.27-0.09,0.54-0.36,0.61
		c-1.84,0.47-3.72,0.9-5.54,1.31c-3.44,0.78-6.99,1.58-10.37,2.72c-5.97,2.01-10.52,4.87-13.54,8.49
		C298.63,281.38,298.49,281.44,298.35,281.44z"></path><path class="st2" d="M326.66,283.44c-0.1,0-0.2-0.03-0.29-0.09c-1.1-0.79-1.2-2.38-0.66-3.47c0.54-1.1,1.6-1.82,2.46-2.32
		c2.33-1.37,4.97-2.26,7.65-2.57c0.27-0.04,0.52,0.16,0.55,0.44c0.03,0.27-0.16,0.52-0.44,0.55c-2.54,0.3-5.05,1.14-7.26,2.44
		c-0.79,0.46-1.64,1.05-2.07,1.91c-0.35,0.7-0.32,1.75,0.34,2.22c0.22,0.16,0.28,0.47,0.12,0.7
		C326.97,283.36,326.81,283.44,326.66,283.44z"></path><path class="st2" d="M248.12,313.67c-0.32,0-0.66-0.07-0.99-0.21c-0.95-0.4-1.7-1.29-1.91-2.26c-0.34-1.56,0.31-3.1,1.07-4.54
		c5.95-11.27,16.01-19.39,26.91-21.71c0.27-0.05,0.54,0.11,0.59,0.38c0.06,0.27-0.12,0.54-0.38,0.59
		c-10.62,2.26-20.43,10.19-26.24,21.2c-0.67,1.26-1.25,2.61-0.98,3.86c0.14,0.66,0.67,1.28,1.32,1.55c0.31,0.13,0.78,0.23,1.22-0.04
		c0.24-0.15,0.54-0.08,0.69,0.16c0.15,0.23,0.08,0.54-0.16,0.69C248.92,313.56,248.53,313.67,248.12,313.67z"></path><path class="st2" d="M425.01,302.82c-0.02,0-0.05,0-0.07,0c-0.27-0.04-0.46-0.29-0.42-0.57c0.22-1.53,0-3.21-0.68-5.13
		c-1.26-3.55-3.67-6.87-6.99-9.6c-2.84-2.34-6.29-4.25-10.56-5.85c-0.26-0.1-0.39-0.38-0.29-0.64c0.1-0.26,0.38-0.39,0.64-0.29
		c4.37,1.64,7.92,3.61,10.84,6.01c3.45,2.84,5.98,6.32,7.29,10.04c0.74,2.08,0.97,3.92,0.73,5.61
		C425.47,302.65,425.26,302.82,425.01,302.82z"></path><path class="st1" d="M369.43,412.33c-6.91,0-13.74-1.65-19.57-3.06c-1.34-0.32-2.17-1.67-1.84-3.02s1.68-2.17,3.02-1.84
		c8.22,1.98,17.52,4.23,26.04,2.01c3.82-1,7.81-2.99,12.54-6.26c6.14-4.24,9.2-8.17,9.64-12.37c0.65-6.25-5.08-11.68-10.8-13.63
		c-5.6-1.9-11.92-1.67-18.04-1.45c-1.02,0.04-2.03,0.07-3.04,0.1c-5.18,0.15-10.44,0.04-15.61-0.32c-5.03-0.35-12.1-1.45-15.34-6.98
		c-1.64-2.79-2.04-6.41-1.18-10.48c1.86-8.75,8.61-16.51,17.62-20.27c7.83-3.27,17.3-3.62,26.66-1c1.33,0.37,2.11,1.75,1.73,3.08
		c-0.37,1.33-1.75,2.11-3.08,1.73c-8.28-2.32-16.58-2.04-23.39,0.8c-7.51,3.13-13.13,9.53-14.65,16.69
		c-0.42,1.97-0.65,4.78,0.6,6.91c1.58,2.69,5.09,4.09,11.38,4.52c5.01,0.35,10.1,0.45,15.12,0.31c1-0.03,2-0.06,3-0.1
		c6.57-0.24,13.36-0.49,19.84,1.71c7.74,2.63,15.09,9.96,14.17,18.88c-0.78,7.58-7.09,12.74-11.77,15.97
		c-3.29,2.27-8.34,5.47-14.12,6.98C375.4,412.02,372.41,412.33,369.43,412.33z"></path><path class="st1" d="M378.81,424.66c-1.15,0-2.19-0.8-2.44-1.98l-21.02-98.16c-0.29-1.35,0.57-2.68,1.92-2.97
		c1.35-0.29,2.68,0.57,2.97,1.92l21.02,98.16c0.29,1.35-0.57,2.68-1.92,2.97C379.16,424.64,378.98,424.66,378.81,424.66z"></path><path class="st2" d="M450.04,444.03H49.96c-0.55,0-1-0.45-1-1s0.45-1,1-1h400.08c0.55,0,1,0.45,1,1S450.59,444.03,450.04,444.03z"></path></g></svg>